<?xml version="1.0" standalone="no"?><!DOCTYPE svg PUBLIC "-//W3C//DTD SVG 1.1//EN" "http://www.w3.org/Graphics/SVG/1.1/DTD/svg11.dtd"><svg t="1657097000020" class="icon" viewBox="0 0 1024 1024" version="1.1" xmlns="http://www.w3.org/2000/svg" p-id="8448" xmlns:xlink="http://www.w3.org/1999/xlink" width="128" height="128"><defs><style type="text/css">@font-face { font-family: feedback-iconfont; src: url("//at.alicdn.com/t/font_1031158_u69w8yhxdu.woff2?t=1630033759944") format("woff2"), url("//at.alicdn.com/t/font_1031158_u69w8yhxdu.woff?t=1630033759944") format("woff"), url("//at.alicdn.com/t/font_1031158_u69w8yhxdu.ttf?t=1630033759944") format("truetype"); }
</style></defs><path d="M290.5088 860.16a3.6864 3.6864 0 0 1-6.4512-2.3552 164.9664 164.9664 0 0 1 2.8672-40.96 169.472 169.472 0 0 1 5.3248-20.48c13.0048-68.096 94.3104-108.9536 153.6-59.4944a109.7728 109.7728 0 0 1 12.0832 10.24 100.9664 100.9664 0 0 1 10.24 11.6736 107.6224 107.6224 0 0 1 12.288 19.7632c28.0576 40.6528-2.4576 102.0928-45.568 124.2112-6.0416 5.2224-12.288 10.24-18.8416 14.7456a201.6256 201.6256 0 0 1-40.96 20.48 4.1984 4.1984 0 0 1-4.9152-6.144c15.872-29.5936 14.4384-51.2 20.48-97.28-20.48 28.8768-30.72 55.9104-59.392 76.3904a4.9152 4.9152 0 0 1-7.2704-5.9392c9.5232-26.3168 14.1312-48.3328 22.4256-79.4624 1.6384-6.2464 3.3792-12.8 5.4272-19.8656a88.4736 88.4736 0 0 0-16.384 10.24A356.9664 356.9664 0 0 0 290.5088 860.16z" fill="#F15921" p-id="8449"></path><path d="M687.3088 619.008a333.312 333.312 0 0 1 28.7744 30.72c5.4272 6.5536 11.1616 13.9264 17.1008 22.2208A344.064 344.064 0 0 1 781.2096 860.16a280.064 280.064 0 0 1-2.9696 28.3648c-3.4816 45.2608-26.624 73.8304-49.2544 110.592a9.1136 9.1136 0 0 1-15.7696 0C676.9664 931.84 650.0352 863.6416 597.8112 806.8096l-18.432-31.744zM408.8832 453.12h-31.8464c-10.752 0-21.6064 0-32.4608 0.6144a306.4832 306.4832 0 0 0-148.6848 35.0208 296.96 296.96 0 0 0-27.0336 15.9744c-42.8032 20.48-64.4096 67.1744-85.6064 107.6224a11.1616 11.1616 0 0 0 10.24 16.384 1558.528 1558.528 0 0 1 174.08 0h24.576l36.7616-0.7168 6.144-13.6192c3.1744-8.704 6.7584-17.3056 10.24-26.0096 5.2224-39.8336 52.224-81.92 57.5488-122.1632z" fill="#FAB414" p-id="8450"></path><path d="M921.6 333.9264a1231.36 1231.36 0 0 1-186.4704-130.4576c-21.7088-17.5104-41.5744-43.7248-64.9216-59.392-0.8192 0-5.3248-0.9216-11.776-1.4336l-26.3168-1.024a152.4736 152.4736 0 0 1-71.68-22.016 50.0736 50.0736 0 0 0-7.0656 5.0176 442.5728 442.5728 0 0 0-33.28 32.256c-103.424 111.0016-184.32 254.0544-187.6992 403.8656q-1.3312 14.5408-2.2528 29.4912-0.7168 9.216-1.1264 18.432t-0.7168 18.5344c14.4384 10.24 28.4672 19.6608 42.2912 29.4912l20.48 14.5408c46.3872 46.1824 110.6944 67.1744 168.1408 105.1648q7.3728 3.2768 14.848 6.0416t14.9504 4.8128q9.1136-4.9152 17.92-10.24A458.752 458.752 0 0 0 665.6 738.9184c5.3248-4.5056 10.24-9.216 15.7696-13.9264a280.576 280.576 0 0 0 32.0512-25.4976 369.5616 369.5616 0 0 0 28.7744-29.5936 791.6544 791.6544 0 0 0 71.68-97.4848 805.5808 805.5808 0 0 1 23.9616-33.4848q10.24-16.384 20.48-33.3824a692.3264 692.3264 0 0 0 35.1232-70.5536 593.92 593.92 0 0 0 26.3168-74.752 191.6928 191.6928 0 0 0 5.12-25.088z" fill="#136CA8" p-id="8451"></path><path d="M724.0704 413.7984c-16.0768 54.0672-79.0528 63.488-113.664 43.008s-67.6864-63.488-42.9056-107.2128a108.3392 108.3392 0 0 1 101.4784-56.7296c39.5264 11.6736 72.704 54.6816 62.7712 101.6832a76.9024 76.9024 0 0 1-7.68 19.2512z" fill="#FAB414" p-id="8452"></path><path d="M680.6528 46.1824Q668.16 51.2 655.36 57.856T631.6032 71.68a388.5056 388.5056 0 0 0-77.824 52.9408c-3.6864 3.1744-7.168 6.5536-10.24 10.24l376.6272 222.72C945.4592 266.24 955.0848 175.104 914.8416 94.208 884.3264 12.4928 762.4704 2.2528 680.6528 46.1824z" fill="#F15921" p-id="8453"></path></svg>