<?xml version="1.0" standalone="no"?><!DOCTYPE svg PUBLIC "-//W3C//DTD SVG 1.1//EN" "http://www.w3.org/Graphics/SVG/1.1/DTD/svg11.dtd"><svg t="1656816140883" class="icon" viewBox="0 0 1024 1024" version="1.1" xmlns="http://www.w3.org/2000/svg" p-id="8181" xmlns:xlink="http://www.w3.org/1999/xlink" width="128" height="128"><defs><style type="text/css">@font-face { font-family: feedback-iconfont; src: url("//at.alicdn.com/t/font_1031158_u69w8yhxdu.woff2?t=1630033759944") format("woff2"), url("//at.alicdn.com/t/font_1031158_u69w8yhxdu.woff?t=1630033759944") format("woff"), url("//at.alicdn.com/t/font_1031158_u69w8yhxdu.ttf?t=1630033759944") format("truetype"); }
</style></defs><path d="M896 256a42.666667 42.666667 0 0 0-42.666667-42.666667H170.666667a42.666667 42.666667 0 0 0-42.666667 42.666667v512a42.666667 42.666667 0 0 0 42.666667 42.666667h682.666666a42.666667 42.666667 0 0 0 42.666667-42.666667V256m85.333333 0v512a128 128 0 0 1-128 128H170.666667a128 128 0 0 1-128-128V256a128 128 0 0 1 128-128h682.666666a128 128 0 0 1 128 128z" fill="#516280" p-id="8182"></path><path d="M637.141333 499.2a42.666667 42.666667 0 0 1 0 68.266667L494.933333 674.133333A42.666667 42.666667 0 0 1 426.666667 640v-213.333333a42.666667 42.666667 0 0 1 68.266666-34.133334z" fill="#007BFC" p-id="8183"></path></svg>